/* XPM */
static char *collectible_xpm[] = {
"48 48 6 1",
"  c None",
"k c #5b4a00",
"o c #f2c100",
"i c #d5a700",
"s c #fff2a8",
"h c #9b7a00",
"                                                ",
"                                                ",
"                                                ",
"                                                ",
"                                                ",
"                                                ",
"                                                ",
"                                                ",
"                                                ",
"                                                ",
"                     kkkkkkk                    ",
"                  kkkoooooookkk                 ",
"                kkoooooooooooookk               ",
"               kkoooooooooooooookk              ",
"              kooooosoooooooooooook             ",
"             kooosssssssiooooooooook            ",
"            kkoossssiiiiiiiiiooooookk           ",
"            koossssiiiiiiiiiiiooooook           ",
"           kooosssiiiiiiiiiiiiiooooook          ",
"           kooossiiiiiiiiiiiiiiioooook          ",
"           koossiiiiiihhhhhiiiiiiooook          ",
"          koooosiiiiiihhhhhiiiiiioooook         ",
"          koooosiiiiiihhhhhiiiiiioooook         ",
"          koooosiiiiiihhhhhiiiiiioooook         ",
"          kooooiiiiiiihhhhhiiiiiiiooook         ",
"          koooooiiiiiihhhhhiiiiiioooook         ",
"          koooooiiiiiihhhhhiiiiiioooook         ",
"          koooooiiiiiihhhhhiiiiiioooook         ",
"           kooooiiiiiihhhhhiiiiiiooook          ",
"           koooooiiiiiiiiiiiiiiioooook          ",
"           kooooooiiiiiiiiiiiiiooooook          ",
"            kooooooiiiiiiiiiiiooooook           ",
"            kkooooooiiiiiiiiiooooookk           ",
"             kooooooooooiooooooooook            ",
"              koooooooooooooooooook             ",
"               kkoooooooooooooookk              ",
"                kkoooooooooooookk               ",
"                  kkkoooooookkk                 ",
"                     kkkkkkk                    ",
"                                                ",
"                                                ",
"                                                ",
"                                                ",
"                                                ",
"                                                ",
"                                                ",
"                                                ",
"                                                "
};
