/* XPM */
static char *exit_xpm[] = {
"48 48 7 1",
"  c #1b1f27",
"b c #101318",
"f c #3b2a20",
"d c #19130e",
"o c #6b4c39",
"s c #2a6f3a",
"k c #d1b06a",
"                                                ",
"                                                ",
"                                                ",
"                                                ",
"                                                ",
"                                                ",
"          bbbbbbbbbbbbbbbbbbbbbbbbbbbb          ",
"          bfbssssssssssssssssssssssbfb          ",
"          bfbssssssssssssssssssssssbfb          ",
"          bfbbbbbbbbbbbbbbbbbbbbbbbbfb          ",
"          bffffffffffffffffffffffffffb          ",
"          bffffffffffffffffffffffffffb          ",
"          bfffoooooooooooooooooooofffb          ",
"          bfffoddddddddddddddddddofffb          ",
"          bfffoddddddddddddddddddofffb          ",
"          bfffoddddddddddddddddddofffb          ",
"          bfffoddddddddddddddddddofffb          ",
"          bfffoddddddddddddddddddofffb          ",
"          bfffoddddddddddddddddddofffb          ",
"          bfffoddddddddddddddddddofffb          ",
"          bfffoddddddddddddddddddofffb          ",
"          bfffoddddddddddddddddddofffb          ",
"          bfffoddddddddddddddddddofffb          ",
"          bfffoddddddddddddddddddofffb          ",
"          bfffoddddddddddddddddddofffb          ",
"          bfffoddddddddddddddddddofffb          ",
"          bfffodddddddddddddddkddofffb          ",
"          bfffoddddddddddddddkkkdofffb          ",
"          bfffodddddddddddddkkkkkofffb          ",
"          bfffoddddddddddddddkkkdofffb          ",
"          bfffodddddddddddddddkddofffb          ",
"          bfffoddddddddddddddddddofffb          ",
"          bfffoddddddddddddddddddofffb          ",
"          bfffoddddddddddddddddddofffb          ",
"          bfffoddddddddddddddddddofffb          ",
"          bfffoddddddddddddddddddofffb          ",
"          bfffoddddddddddddddddddofffb          ",
"          bfffoddddddddddddddddddofffb          ",
"          bfffoddddddddddddddddddofffb          ",
"          bfffoddddddddddddddddddofffb          ",
"          bfffoddddddddddddddddddofffb          ",
"          bfffoooooooooooooooooooofffb          ",
"          bffffffffffffffffffffffffffb          ",
"          bbbbbbbbbbbbbbbbbbbbbbbbbbbb          ",
"                                                ",
"                                                ",
"                                                ",
"                                                "
};
