/* XPM */
static char *floor_xpm[] = {
"48 48 3 1",
". c #2a2f3a",
": c #262b35",
", c #1e222b",
",,,,,,,,,,,,,,,,,,,,,,,,,,,,,,,,,,,,,,,,,,,,,,,,",
",...........,:::::::::::,...........,:::::::::::",
",...........,:::::::::::,...........,:::::::::::",
",...........,:::::::::::,...........,:::::::::::",
",...........,:::::::::::,...........,:::::::::::",
",...........,:::::::::::,...........,:::::::::::",
",...........,:::::::::::,...........,:::::::::::",
",...........,:::::::::::,...........,:::::::::::",
",...........,:::::::::::,...........,:::::::::::",
",...........,:::::::::::,...........,:::::::::::",
",...........,:::::::::::,...........,:::::::::::",
",...........,:::::::::::,...........,:::::::::::",
",,,,,,,,,,,,,,,,,,,,,,,,,,,,,,,,,,,,,,,,,,,,,,,,",
",:::::::::::,...........,:::::::::::,...........",
",:::::::::::,...........,:::::::::::,...........",
",:::::::::::,...........,:::::::::::,...........",
",:::::::::::,...........,:::::::::::,...........",
",:::::::::::,...........,:::::::::::,...........",
",:::::::::::,...........,:::::::::::,...........",
",:::::::::::,...........,:::::::::::,...........",
",:::::::::::,...........,:::::::::::,...........",
",:::::::::::,...........,:::::::::::,...........",
",:::::::::::,...........,:::::::::::,...........",
",:::::::::::,...........,:::::::::::,...........",
",,,,,,,,,,,,,,,,,,,,,,,,,,,,,,,,,,,,,,,,,,,,,,,,",
",...........,:::::::::::,...........,:::::::::::",
",...........,:::::::::::,...........,:::::::::::",
",...........,:::::::::::,...........,:::::::::::",
",...........,:::::::::::,...........,:::::::::::",
",...........,:::::::::::,...........,:::::::::::",
",...........,:::::::::::,...........,:::::::::::",
",...........,:::::::::::,...........,:::::::::::",
",...........,:::::::::::,...........,:::::::::::",
",...........,:::::::::::,...........,:::::::::::",
",...........,:::::::::::,...........,:::::::::::",
",...........,:::::::::::,...........,:::::::::::",
",,,,,,,,,,,,,,,,,,,,,,,,,,,,,,,,,,,,,,,,,,,,,,,,",
",:::::::::::,...........,:::::::::::,...........",
",:::::::::::,...........,:::::::::::,...........",
",:::::::::::,...........,:::::::::::,...........",
",:::::::::::,...........,:::::::::::,...........",
",:::::::::::,...........,:::::::::::,...........",
",:::::::::::,...........,:::::::::::,...........",
",:::::::::::,...........,:::::::::::,...........",
",:::::::::::,...........,:::::::::::,...........",
",:::::::::::,...........,:::::::::::,...........",
",:::::::::::,...........,:::::::::::,...........",
",:::::::::::,...........,:::::::::::,..........."
};
