/* XPM */
static char *player_xpm[] = {
"48 48 8 1",
"  c None",
"o c #0b0d10",
"h c #f1d0b5",
"e c #0b0d10",
"b c #2b7bbb",
"l c #1f5b8a",
"a c #2b7bbb",
"s c #ffffff",
"                                                ",
"                                                ",
"                                                ",
"                                                ",
"                                                ",
"                                                ",
"                                                ",
"                                                ",
"                    s ooooo                     ",
"                   ssshhhhhoo                   ",
"                  ssssshhhhhoo                  ",
"                   ssshhhhhhho                  ",
"                  ohshhhhhhhhho                 ",
"                  ohhhehhhehhho                 ",
"                  ohhhhhhhhhhho                 ",
"                 oohhhhhhhhhhhoo                ",
"                obohhhhhhhhhhhobo               ",
"               obbbohhhhhhhhhobbbo              ",
"               obbboohhhhhhhoobbbo              ",
"              oobbbboohhhhhoobbbboo             ",
"          oooooooobbbbooooobbboooooooo          ",
"          oaaaaaaobbbbbbbbbbbboaaaaaao          ",
"          oaaaaaaobbbbbbbbbbbboaaaaaao          ",
"          oaaaaaaobbbbbbbbbbbboaaaaaao          ",
"          oaaaaaaobbbbbbbbbbbboaaaaaao          ",
"          oooooooobbbbbbbbbbbboooooooo          ",
"               obbbbbbbbbbbbbbbbbo              ",
"               obbbbbbbbbbbbbbbbbo              ",
"                obbbbbbbbbbbbbbbo               ",
"                 obbbbbbbbbbbbbo                ",
"                  ooooobboooooo                 ",
"                  olllobbolllo                  ",
"                  ollloooolllo                  ",
"                  olllo  olllo                  ",
"                  olllo  olllo                  ",
"                  olllo  olllo                  ",
"                  olllo  olllo                  ",
"                  olllo  olllo                  ",
"                  olllo  olllo                  ",
"                  olllo  olllo                  ",
"                  olllo  olllo                  ",
"                  ooooo  ooooo                  ",
"                                                ",
"                                                ",
"                                                ",
"                                                ",
"                                                ",
"                                                "
};
