/* XPM */
static char *wall_xpm[] = {
"48 48 3 1",
"b c #8c3a2b",
"m c #c9b39b",
"d c #5a231a",
"dddddddddddddddddddddddddddddddddddddddddddddddd",
"dbbbbbbbbbbbmbbbbbbbbbbbmbbbbbbbbbbbmbbbbbbbbbbd",
"dbbbbbbbbbbbmbbbbbbbbbbbmbbbbbbbbbbbmbbbbbbbbbbd",
"dbbbbbbbbbbbmbbbbbbbbbbbmbbbbbbbbbbbmbbbbbbbbbbd",
"dbbbbbbbbbbbmbbbbbbbbbbbmbbbbbbbbbbbmbbbbbbbbbbd",
"dbbbbbbbbbbbmbbbbbbbbbbbmbbbbbbbbbbbmbbbbbbbbbbd",
"dbbbbbbbbbbbmbbbbbbbbbbbmbbbbbbbbbbbmbbbbbbbbbbd",
"dbbbbbbbbbbbmbbbbbbbbbbbmbbbbbbbbbbbmbbbbbbbbbbd",
"dmmmmmmmmmmmmmmmmmmmmmmmmmmmmmmmmmmmmmmmmmmmmmmd",
"dbbbmbbbbbbbbbbbmbbbbbbbbbbbmbbbbbbbbbbbmbbbbbbd",
"dbbbmbbbbbbbbbbbmbbbbbbbbbbbmbbbbbbbbbbbmbbbbbbd",
"dbbbmbbbbbbbbbbbmbbbbbbbbbbbmbbbbbbbbbbbmbbbbbbd",
"dbbbmbbbbbbbbbbbmbbbbbbbbbbbmbbbbbbbbbbbmbbbbbbd",
"dbbbmbbbbbbbbbbbmbbbbbbbbbbbmbbbbbbbbbbbmbbbbbbd",
"dbbbmbbbbbbbbbbbmbbbbbbbbbbbmbbbbbbbbbbbmbbbbbbd",
"dbbbmbbbbbbbbbbbmbbbbbbbbbbbmbbbbbbbbbbbmbbbbbbd",
"dmmmmmmmmmmmmmmmmmmmmmmmmmmmmmmmmmmmmmmmmmmmmmmd",
"dbbbbbbbbbbbmbbbbbbbbbbbmbbbbbbbbbbbmbbbbbbbbbbd",
"dbbbbbbbbbbbmbbbbbbbbbbbmbbbbbbbbbbbmbbbbbbbbbbd",
"dbbbbbbbbbbbmbbbbbbbbbbbmbbbbbbbbbbbmbbbbbbbbbbd",
"dbbbbbbbbbbbmbbbbbbbbbbbmbbbbbbbbbbbmbbbbbbbbbbd",
"dbbbbbbbbbbbmbbbbbbbbbbbmbbbbbbbbbbbmbbbbbbbbbbd",
"dbbbbbbbbbbbmbbbbbbbbbbbmbbbbbbbbbbbmbbbbbbbbbbd",
"dbbbbbbbbbbbmbbbbbbbbbbbmbbbbbbbbbbbmbbbbbbbbbbd",
"dmmmmmmmmmmmmmmmmmmmmmmmmmmmmmmmmmmmmmmmmmmmmmmd",
"dbbbmbbbbbbbbbbbmbbbbbbbbbbbmbbbbbbbbbbbmbbbbbbd",
"dbbbmbbbbbbbbbbbmbbbbbbbbbbbmbbbbbbbbbbbmbbbbbbd",
"dbbbmbbbbbbbbbbbmbbbbbbbbbbbmbbbbbbbbbbbmbbbbbbd",
"dbbbmbbbbbbbbbbbmbbbbbbbbbbbmbbbbbbbbbbbmbbbbbbd",
"dbbbmbbbbbbbbbbbmbbbbbbbbbbbmbbbbbbbbbbbmbbbbbbd",
"dbbbmbbbbbbbbbbbmbbbbbbbbbbbmbbbbbbbbbbbmbbbbbbd",
"dbbbmbbbbbbbbbbbmbbbbbbbbbbbmbbbbbbbbbbbmbbbbbbd",
"dmmmmmmmmmmmmmmmmmmmmmmmmmmmmmmmmmmmmmmmmmmmmmmd",
"dbbbbbbbbbbbmbbbbbbbbbbbmbbbbbbbbbbbmbbbbbbbbbbd",
"dbbbbbbbbbbbmbbbbbbbbbbbmbbbbbbbbbbbmbbbbbbbbbbd",
"dbbbbbbbbbbbmbbbbbbbbbbbmbbbbbbbbbbbmbbbbbbbbbbd",
"dbbbbbbbbbbbmbbbbbbbbbbbmbbbbbbbbbbbmbbbbbbbbbbd",
"dbbbbbbbbbbbmbbbbbbbbbbbmbbbbbbbbbbbmbbbbbbbbbbd",
"dbbbbbbbbbbbmbbbbbbbbbbbmbbbbbbbbbbbmbbbbbbbbbbd",
"dbbbbbbbbbbbmbbbbbbbbbbbmbbbbbbbbbbbmbbbbbbbbbbd",
"dmmmmmmmmmmmmmmmmmmmmmmmmmmmmmmmmmmmmmmmmmmmmmmd",
"dbbbmbbbbbbbbbbbmbbbbbbbbbbbmbbbbbbbbbbbmbbbbbbd",
"dbbbmbbbbbbbbbbbmbbbbbbbbbbbmbbbbbbbbbbbmbbbbbbd",
"dbbbmbbbbbbbbbbbmbbbbbbbbbbbmbbbbbbbbbbbmbbbbbbd",
"dbbbmbbbbbbbbbbbmbbbbbbbbbbbmbbbbbbbbbbbmbbbbbbd",
"dbbbmbbbbbbbbbbbmbbbbbbbbbbbmbbbbbbbbbbbmbbbbbbd",
"dbbbmbbbbbbbbbbbmbbbbbbbbbbbmbbbbbbbbbbbmbbbbbbd",
"dddddddddddddddddddddddddddddddddddddddddddddddd"
};
